<svg xmlns="http://www.w3.org/2000/svg" viewBox="0 0 71.9 52.97"><defs><style>.cls-1{isolation:isolate;}.cls-2{fill:#eb7b0c;}.cls-3{fill:#feaa0f;}.cls-4{fill:#ffe699;}.cls-5{fill:#ffd580;}.cls-6{fill:#ffe9a6;opacity:0.45;mix-blend-mode:screen;}.cls-7{fill:#cc540a;}</style></defs><title>Asset 4</title><g class="cls-1"><g id="Layer_2" data-name="Layer 2"><g id="Шар_1" data-name="Шар 1"><path class="cls-2" d="M49.7,32.48a10.43,10.43,0,0,0,.74,3.64C52,39,57,39.79,60.78,39.76c6.77-.06,9.25-3,10.34-4.48a7.78,7.78,0,0,0,.61-3.86C64.62,30.19,56.94,31.24,49.7,32.48Z"/><path class="cls-3" d="M71.72,31.41A7.44,7.44,0,0,0,68,27.15a14.7,14.7,0,0,0-6.24-1.63,15.43,15.43,0,0,0-7.56,1.39,8,8,0,0,0-4.42,5,3.44,3.44,0,0,0,.38,2.17C54.09,39.87,72.59,37.89,71.72,31.41Z"/><path class="cls-4" d="M49.58,32.43A3.88,3.88,0,0,1,50,30.82a7,7,0,0,1,.93-1.49,9.34,9.34,0,0,1,2.68-2.22,14.57,14.57,0,0,1,6.68-1.7,16.35,16.35,0,0,1,6.8,1.19A10,10,0,0,1,70,28.49a6.29,6.29,0,0,1,1.85,2.95v0h0a9,9,0,0,1-.13,2,5.88,5.88,0,0,1-.62,1.88,5.8,5.8,0,0,0,.48-1.9,8.89,8.89,0,0,0,0-1.94A6.8,6.8,0,0,0,70.9,30a7.34,7.34,0,0,0-1.08-1.28A9.61,9.61,0,0,0,67,26.89a16.05,16.05,0,0,0-6.66-1.17,14.24,14.24,0,0,0-6.54,1.66,9,9,0,0,0-2.59,2.15,5.56,5.56,0,0,0-1.31,3l0,.12a10.53,10.53,0,0,0,.6,3.52,10.55,10.55,0,0,1-.88-3.63Z"/><path class="cls-5" d="M55.87,29.19a15.13,15.13,0,0,0-3.23-.81,9.67,9.67,0,0,1,1.75-1.12,14.94,14.94,0,0,1,7.29-1.33,14.19,14.19,0,0,1,6,1.57,7,7,0,0,1,3.54,4A2.78,2.78,0,0,1,71,33c-.59,1.3-2.3,2.42-4.65,3.16A26,26,0,0,0,55.87,29.19Z"/><path class="cls-2" d="M62.14,35.86a11.13,11.13,0,0,1-8.08-1.63,4,4,0,0,1-1.26-1.33,2.05,2.05,0,0,1-.13-1.65,4.38,4.38,0,0,1,1-1.57,6.91,6.91,0,0,1,1.51-1.25A9.73,9.73,0,0,1,59,27.12a12.64,12.64,0,0,1,4.14.2,19.32,19.32,0,0,1,3.93,1.3,7.93,7.93,0,0,1,1.76,1,2.77,2.77,0,0,1,1,1.6,2.75,2.75,0,0,0-1-1.68,7.71,7.71,0,0,0-1.75-1.11A18.13,18.13,0,0,0,63.22,27a12.59,12.59,0,0,0-4.32-.28,10,10,0,0,0-4.11,1.4,6,6,0,0,0-2.62,3.12,2.4,2.4,0,0,0,.24,1.92,4.47,4.47,0,0,0,1.43,1.4A11.14,11.14,0,0,0,62.14,35.86Z"/><path class="cls-6" d="M64.87,36A4.84,4.84,0,0,0,69,33.86a3.37,3.37,0,0,0-.43-4.06A8.16,8.16,0,0,0,64.19,28a18.38,18.38,0,0,0-5.83-.39,7.45,7.45,0,0,0-5,2.58,14.56,14.56,0,0,1,8.11-1.22,8.72,8.72,0,0,1,3.63,1.24A4.1,4.1,0,0,1,67,33C67.12,34.17,66,35.34,64.87,36Z"/><path class="cls-7" d="M56.06,39.16a4,4,0,0,1,.06-1.65,9.29,9.29,0,0,1-5.67-2.87,3.52,3.52,0,0,0,1.77,2.87A16.16,16.16,0,0,0,56.06,39.16Z"/><path class="cls-7" d="M68,37.82a1.84,1.84,0,0,0,.49-1.75,6.36,6.36,0,0,0,2.82-2.21A6.67,6.67,0,0,1,68,37.82Z"/><path class="cls-6" d="M59.76,39.52c.06-.51,0-1,0-1.5a12.85,12.85,0,0,1-3.28-.36A4,4,0,0,0,56.47,39,10.93,10.93,0,0,0,59.76,39.52Z"/><path class="cls-2" d="M.1,38.09a9.28,9.28,0,0,0,.66,3.23c1.37,2.56,5.87,3.26,9.19,3.24,6,0,8.22-2.7,9.19-4a6.94,6.94,0,0,0,.54-3.43C13.36,36.05,6.54,37,.1,38.09Z"/><path class="cls-3" d="M19.68,37.14a6.61,6.61,0,0,0-3.33-3.79,13.07,13.07,0,0,0-5.54-1.45,13.75,13.75,0,0,0-6.72,1.23A7.07,7.07,0,0,0,.15,37.57a3.06,3.06,0,0,0,.33,1.93C4,44.66,20.45,42.9,19.68,37.14Z"/><path class="cls-4" d="M0,38a3.43,3.43,0,0,1,.38-1.43,6.24,6.24,0,0,1,.83-1.32,8.29,8.29,0,0,1,2.38-2A12.93,12.93,0,0,1,9.53,31.8a14.53,14.53,0,0,1,6,1.06,8.86,8.86,0,0,1,2.6,1.67,5.61,5.61,0,0,1,1.65,2.62h0A8,8,0,0,1,19.71,39a5.21,5.21,0,0,1-.55,1.67,5.12,5.12,0,0,0,.43-1.69,7.78,7.78,0,0,0,0-1.72,6,6,0,0,0-.63-1.33,6.5,6.5,0,0,0-1-1.14,8.58,8.58,0,0,0-2.52-1.62,14.26,14.26,0,0,0-5.92-1,12.66,12.66,0,0,0-5.81,1.47,8,8,0,0,0-2.3,1.91A5,5,0,0,0,.26,38.14v.11a9.31,9.31,0,0,0,.54,3.12A9.4,9.4,0,0,1,0,38.14Z"/><path class="cls-5" d="M5.59,35.17a13.38,13.38,0,0,0-2.87-.72,8.61,8.61,0,0,1,1.56-1,13.28,13.28,0,0,1,6.48-1.18,12.6,12.6,0,0,1,5.35,1.4,6.26,6.26,0,0,1,3.15,3.53,2.48,2.48,0,0,1-.2,1.37c-.53,1.15-2,2.15-4.13,2.81A23.14,23.14,0,0,0,5.59,35.17Z"/><path class="cls-2" d="M11.16,41.09A9.89,9.89,0,0,1,4,39.65a3.58,3.58,0,0,1-1.12-1.18A1.82,1.82,0,0,1,2.74,37a3.9,3.9,0,0,1,.85-1.39A6.15,6.15,0,0,1,4.93,34.5a8.69,8.69,0,0,1,3.43-1.17,11.25,11.25,0,0,1,3.68.18,17.09,17.09,0,0,1,3.49,1.16,7,7,0,0,1,1.57.9A2.46,2.46,0,0,1,18,37a2.44,2.44,0,0,0-.85-1.49,6.85,6.85,0,0,0-1.55-1,16.16,16.16,0,0,0-3.51-1.3,11.21,11.21,0,0,0-3.84-.25,8.86,8.86,0,0,0-3.65,1.25A5.28,5.28,0,0,0,2.29,37a2.13,2.13,0,0,0,.22,1.71,4,4,0,0,0,1.27,1.25A9.9,9.9,0,0,0,11.16,41.09Z"/><path class="cls-6" d="M13.59,41.22a4.3,4.3,0,0,0,3.69-1.91,3,3,0,0,0-.38-3.6A7.26,7.26,0,0,0,13,34.06a16.31,16.31,0,0,0-5.19-.35A6.62,6.62,0,0,0,3.33,36a12.93,12.93,0,0,1,7.2-1.08A7.75,7.75,0,0,1,13.76,36a3.65,3.65,0,0,1,1.71,2.54C15.59,39.59,14.6,40.63,13.59,41.22Z"/><path class="cls-7" d="M5.76,44a3.56,3.56,0,0,1,.05-1.47A8.25,8.25,0,0,1,.77,40a3.13,3.13,0,0,0,1.57,2.55A14.33,14.33,0,0,0,5.76,44Z"/><path class="cls-7" d="M16.35,42.83a1.64,1.64,0,0,0,.44-1.55,5.64,5.64,0,0,0,2.51-2A5.93,5.93,0,0,1,16.35,42.83Z"/><path class="cls-6" d="M9,44.34c.05-.45,0-.89,0-1.34a11.42,11.42,0,0,1-2.91-.32,3.51,3.51,0,0,0,0,1.19A9.71,9.71,0,0,0,9,44.34Z"/><path class="cls-2" d="M20.88,31.21A11,11,0,0,0,21.64,35c1.6,3,6.86,3.82,10.75,3.79,7-.07,9.62-3.18,10.75-4.69a8.14,8.14,0,0,0,.63-4C36.4,28.81,28.41,29.91,20.88,31.21Z"/><path class="cls-3" d="M43.78,30.07a7.73,7.73,0,0,0-3.89-4.44,15.21,15.21,0,0,0-6.48-1.69,16,16,0,0,0-7.86,1.46,8.32,8.32,0,0,0-4.61,5.22,3.59,3.59,0,0,0,.39,2.27C25.44,38.92,44.68,36.83,43.78,30.07Z"/><path class="cls-5" d="M27.31,27.78A15.75,15.75,0,0,0,24,26.93a10.05,10.05,0,0,1,1.83-1.17,15.5,15.5,0,0,1,7.58-1.4A14.66,14.66,0,0,1,39.61,26a7.31,7.31,0,0,1,3.68,4.15,2.9,2.9,0,0,1-.24,1.61c-.62,1.36-2.39,2.53-4.84,3.3A27,27,0,0,0,27.31,27.78Z"/><path class="cls-2" d="M33.81,34.73A11.53,11.53,0,0,1,25.42,33a4.19,4.19,0,0,1-1.3-1.38A2.14,2.14,0,0,1,24,29.93a4.63,4.63,0,0,1,1-1.64A7.23,7.23,0,0,1,26.54,27a10.14,10.14,0,0,1,4-1.38,13.09,13.09,0,0,1,4.31.21,19.83,19.83,0,0,1,4.08,1.36,8.11,8.11,0,0,1,1.83,1.05,2.87,2.87,0,0,1,1.08,1.67,2.86,2.86,0,0,0-1-1.75A8,8,0,0,0,39.05,27a18.71,18.71,0,0,0-4.1-1.52,13,13,0,0,0-4.49-.29,10.34,10.34,0,0,0-4.27,1.47,6.23,6.23,0,0,0-2.73,3.26,2.51,2.51,0,0,0,.25,2,4.64,4.64,0,0,0,1.49,1.46A11.54,11.54,0,0,0,33.81,34.73Z"/><path class="cls-6" d="M36.65,34.88A5,5,0,0,0,41,32.62a3.52,3.52,0,0,0-.45-4.23c-1.09-1.14-2.87-1.59-4.56-1.92a19.07,19.07,0,0,0-6.07-.4,7.76,7.76,0,0,0-5.23,2.7,15.09,15.09,0,0,1,8.43-1.28,9,9,0,0,1,3.77,1.29,4.26,4.26,0,0,1,2,3C39,33,37.83,34.18,36.65,34.88Z"/><path class="cls-7" d="M27.49,38.18a4.17,4.17,0,0,1,.06-1.72,9.62,9.62,0,0,1-5.89-3,3.66,3.66,0,0,0,1.84,3A16.73,16.73,0,0,0,27.49,38.18Z"/><path class="cls-7" d="M39.89,36.76a1.94,1.94,0,0,0,.51-1.82,6.64,6.64,0,0,0,2.94-2.31A7,7,0,0,1,39.89,36.76Z"/><path class="cls-6" d="M31.34,38.55c.06-.53,0-1,0-1.57A13.29,13.29,0,0,1,28,36.6a4.17,4.17,0,0,0-.06,1.4A11.26,11.26,0,0,0,31.34,38.55Z"/><path class="cls-2" d="M19.91,27.93a11,11,0,0,0,.77,3.79c1.6,3,6.86,3.82,10.75,3.79,7-.07,9.62-3.18,10.75-4.69a8.16,8.16,0,0,0,.64-4C35.42,25.52,27.44,26.62,19.91,27.93Z"/><path class="cls-3" d="M42.81,26.78a7.72,7.72,0,0,0-3.89-4.44,15.23,15.23,0,0,0-6.48-1.69,16,16,0,0,0-7.86,1.46A8.32,8.32,0,0,0,20,27.32a3.59,3.59,0,0,0,.39,2.27C24.47,35.64,43.71,33.55,42.81,26.78Z"/><path class="cls-5" d="M26.34,24.49A15.63,15.63,0,0,0,23,23.64a9.94,9.94,0,0,1,1.82-1.17,15.5,15.5,0,0,1,7.58-1.4,14.68,14.68,0,0,1,6.26,1.63,7.31,7.31,0,0,1,3.68,4.15,2.91,2.91,0,0,1-.24,1.61c-.62,1.36-2.39,2.53-4.84,3.3A27,27,0,0,0,26.34,24.49Z"/><path class="cls-2" d="M32.84,31.44a11.52,11.52,0,0,1-8.4-1.69,4.15,4.15,0,0,1-1.3-1.39A2.14,2.14,0,0,1,23,26.64,4.63,4.63,0,0,1,24,25a7.29,7.29,0,0,1,1.57-1.3,10.13,10.13,0,0,1,4-1.38,13.09,13.09,0,0,1,4.31.21A19.88,19.88,0,0,1,38,23.89a8.18,8.18,0,0,1,1.83,1.05,2.88,2.88,0,0,1,1.08,1.67,2.86,2.86,0,0,0-1-1.75,8,8,0,0,0-1.81-1.16A18.73,18.73,0,0,0,34,22.17a13,13,0,0,0-4.49-.29,10.37,10.37,0,0,0-4.28,1.47,6.22,6.22,0,0,0-2.73,3.26,2.5,2.5,0,0,0,.25,2,4.66,4.66,0,0,0,1.49,1.46A11.53,11.53,0,0,0,32.84,31.44Z"/><path class="cls-6" d="M35.68,31.59A5,5,0,0,0,40,29.34a3.52,3.52,0,0,0-.45-4.23C38.46,24,36.68,23.51,35,23.18a19.06,19.06,0,0,0-6.06-.41,7.77,7.77,0,0,0-5.23,2.7,15.09,15.09,0,0,1,8.43-1.28,9,9,0,0,1,3.77,1.29,4.26,4.26,0,0,1,2,3C38,29.67,36.86,30.89,35.68,31.59Z"/><path class="cls-7" d="M26.52,34.89a4.16,4.16,0,0,1,.06-1.72,9.62,9.62,0,0,1-5.9-3,3.67,3.67,0,0,0,1.84,3A16.73,16.73,0,0,0,26.52,34.89Z"/><path class="cls-7" d="M38.91,33.47a1.94,1.94,0,0,0,.51-1.82,6.64,6.64,0,0,0,2.94-2.31A7,7,0,0,1,38.91,33.47Z"/><path class="cls-6" d="M30.36,35.26c.06-.53,0-1,0-1.57A13.26,13.26,0,0,1,27,33.31a4.15,4.15,0,0,0-.06,1.4A11.28,11.28,0,0,0,30.36,35.26Z"/><path class="cls-2" d="M21.65,25a11,11,0,0,0,.77,3.79c1.6,3,6.86,3.82,10.75,3.79,7-.07,9.62-3.18,10.75-4.69a8.15,8.15,0,0,0,.63-4C37.16,22.57,29.18,23.67,21.65,25Z"/><path class="cls-3" d="M44.55,23.83a7.73,7.73,0,0,0-3.89-4.44,15.21,15.21,0,0,0-6.48-1.69,16,16,0,0,0-7.86,1.46,8.32,8.32,0,0,0-4.6,5.21,3.6,3.6,0,0,0,.39,2.27C26.21,32.68,45.45,30.59,44.55,23.83Z"/><path class="cls-5" d="M28.08,21.54a15.64,15.64,0,0,0-3.36-.84,10,10,0,0,1,1.83-1.17,15.49,15.49,0,0,1,7.58-1.4,14.66,14.66,0,0,1,6.25,1.63,7.32,7.32,0,0,1,3.68,4.15,2.92,2.92,0,0,1-.24,1.61C43.2,26.87,41.43,28,39,28.81A27,27,0,0,0,28.08,21.54Z"/><path class="cls-2" d="M34.58,28.49a11.52,11.52,0,0,1-8.4-1.69,4.16,4.16,0,0,1-1.3-1.38,2.15,2.15,0,0,1-.14-1.73,4.62,4.62,0,0,1,1-1.64,7.24,7.24,0,0,1,1.57-1.3,10.15,10.15,0,0,1,4-1.38,13.09,13.09,0,0,1,4.31.21,19.93,19.93,0,0,1,4.08,1.36A8.14,8.14,0,0,1,41.54,22a2.88,2.88,0,0,1,1.08,1.67,2.86,2.86,0,0,0-1-1.75,8,8,0,0,0-1.81-1.16,18.75,18.75,0,0,0-4.11-1.52,13,13,0,0,0-4.49-.29,10.36,10.36,0,0,0-4.28,1.47,6.23,6.23,0,0,0-2.73,3.26,2.5,2.5,0,0,0,.25,2A4.64,4.64,0,0,0,26,27.12,11.53,11.53,0,0,0,34.58,28.49Z"/><path class="cls-6" d="M37.42,28.64a5,5,0,0,0,4.31-2.25,3.52,3.52,0,0,0-.45-4.23c-1.09-1.14-2.87-1.6-4.57-1.92a19.06,19.06,0,0,0-6.07-.41,7.77,7.77,0,0,0-5.23,2.7,15.11,15.11,0,0,1,8.43-1.28,9,9,0,0,1,3.77,1.29,4.26,4.26,0,0,1,2,3C39.76,26.72,38.6,27.94,37.42,28.64Z"/><path class="cls-7" d="M28.26,31.94a4.16,4.16,0,0,1,.06-1.72,9.62,9.62,0,0,1-5.9-3,3.66,3.66,0,0,0,1.84,3A16.73,16.73,0,0,0,28.26,31.94Z"/><path class="cls-7" d="M40.65,30.52a1.93,1.93,0,0,0,.51-1.82,6.63,6.63,0,0,0,2.94-2.31A7,7,0,0,1,40.65,30.52Z"/><path class="cls-6" d="M32.11,32.31c.06-.53,0-1,0-1.57a13.31,13.31,0,0,1-3.41-.38,4.17,4.17,0,0,0-.06,1.4A11.28,11.28,0,0,0,32.11,32.31Z"/><path class="cls-2" d="M20.43,20.82a10.94,10.94,0,0,0,.77,3.79c1.6,3,6.87,3.83,10.75,3.79,7-.07,9.62-3.18,10.75-4.69a8.17,8.17,0,0,0,.64-4C35.94,18.41,28,19.51,20.43,20.82Z"/><path class="cls-3" d="M43.33,19.68a7.73,7.73,0,0,0-3.89-4.44A15.22,15.22,0,0,0,33,13.54,16,16,0,0,0,25.1,15a8.32,8.32,0,0,0-4.61,5.21,3.59,3.59,0,0,0,.39,2.27C25,28.53,44.23,26.44,43.33,19.68Z"/><path class="cls-5" d="M26.86,17.38a15.66,15.66,0,0,0-3.36-.84,10,10,0,0,1,1.83-1.17A15.49,15.49,0,0,1,32.9,14a14.66,14.66,0,0,1,6.26,1.63,7.32,7.32,0,0,1,3.68,4.15,2.92,2.92,0,0,1-.24,1.61c-.62,1.36-2.39,2.53-4.84,3.3A27,27,0,0,0,26.86,17.38Z"/><path class="cls-2" d="M33.36,24.33A11.52,11.52,0,0,1,25,22.65a4.17,4.17,0,0,1-1.3-1.39,2.15,2.15,0,0,1-.14-1.73,4.62,4.62,0,0,1,1-1.64,7.2,7.2,0,0,1,1.57-1.3,10.11,10.11,0,0,1,4-1.38,13.1,13.1,0,0,1,4.31.21,20,20,0,0,1,4.08,1.36,8.19,8.19,0,0,1,1.83,1.05,2.88,2.88,0,0,1,1.08,1.67,2.85,2.85,0,0,0-1-1.75,8,8,0,0,0-1.81-1.16,18.63,18.63,0,0,0-4.1-1.52A13,13,0,0,0,30,14.77a10.36,10.36,0,0,0-4.28,1.47A6.23,6.23,0,0,0,23,19.5a2.51,2.51,0,0,0,.25,2A4.64,4.64,0,0,0,24.73,23,11.53,11.53,0,0,0,33.36,24.33Z"/><path class="cls-6" d="M36.2,24.48a5,5,0,0,0,4.31-2.25A3.52,3.52,0,0,0,40.07,18C39,16.85,37.2,16.4,35.5,16.07a19.07,19.07,0,0,0-6.07-.4,7.77,7.77,0,0,0-5.23,2.7,15.08,15.08,0,0,1,8.43-1.28,9,9,0,0,1,3.78,1.29,4.26,4.26,0,0,1,2,3C38.54,22.56,37.38,23.79,36.2,24.48Z"/><path class="cls-7" d="M27,27.78a4.13,4.13,0,0,1,.06-1.72,9.62,9.62,0,0,1-5.89-3,3.66,3.66,0,0,0,1.84,3A16.74,16.74,0,0,0,27,27.78Z"/><path class="cls-7" d="M39.43,26.36a1.94,1.94,0,0,0,.51-1.82,6.63,6.63,0,0,0,2.94-2.31A7,7,0,0,1,39.43,26.36Z"/><path class="cls-6" d="M30.89,28.15c.06-.53,0-1,0-1.57a13.22,13.22,0,0,1-3.41-.37,4.18,4.18,0,0,0-.06,1.4A11.32,11.32,0,0,0,30.89,28.15Z"/><path class="cls-2" d="M20.53,16.55a11,11,0,0,0,.77,3.79c1.6,3,6.87,3.82,10.75,3.79,7-.07,9.62-3.18,10.75-4.69a8.16,8.16,0,0,0,.63-4C36,14.15,28.06,15.25,20.53,16.55Z"/><path class="cls-3" d="M43.43,15.41A7.73,7.73,0,0,0,39.55,11a15.23,15.23,0,0,0-6.48-1.69,16,16,0,0,0-7.86,1.46A8.33,8.33,0,0,0,20.59,16,3.59,3.59,0,0,0,21,18.22C25.09,24.26,44.33,22.17,43.43,15.41Z"/><path class="cls-5" d="M27,13.12a15.63,15.63,0,0,0-3.36-.84,10.15,10.15,0,0,1,1.83-1.17A15.51,15.51,0,0,1,33,9.71a14.67,14.67,0,0,1,6.25,1.63,7.31,7.31,0,0,1,3.68,4.15,2.91,2.91,0,0,1-.24,1.61c-.62,1.36-2.39,2.53-4.84,3.3A27,27,0,0,0,27,13.12Z"/><path class="cls-2" d="M33.46,20.07a11.52,11.52,0,0,1-8.4-1.69A4.17,4.17,0,0,1,23.76,17a2.15,2.15,0,0,1-.14-1.73,4.63,4.63,0,0,1,1-1.64,7.17,7.17,0,0,1,1.57-1.3,10.11,10.11,0,0,1,4-1.38,13.09,13.09,0,0,1,4.31.21,19.89,19.89,0,0,1,4.08,1.36,8.12,8.12,0,0,1,1.83,1.05,2.87,2.87,0,0,1,1.08,1.67,2.86,2.86,0,0,0-1-1.75,8.06,8.06,0,0,0-1.81-1.16,18.78,18.78,0,0,0-4.1-1.52,13,13,0,0,0-4.49-.29A10.36,10.36,0,0,0,25.83,12a6.22,6.22,0,0,0-2.73,3.26,2.51,2.51,0,0,0,.25,2,4.63,4.63,0,0,0,1.49,1.46A11.54,11.54,0,0,0,33.46,20.07Z"/><path class="cls-6" d="M36.31,20.22A5,5,0,0,0,40.62,18a3.52,3.52,0,0,0-.44-4.23c-1.09-1.15-2.87-1.6-4.57-1.92a19,19,0,0,0-6.07-.4,7.76,7.76,0,0,0-5.23,2.7,15.08,15.08,0,0,1,8.43-1.28,9,9,0,0,1,3.78,1.29,4.26,4.26,0,0,1,2,3C38.64,18.3,37.49,19.52,36.31,20.22Z"/><path class="cls-7" d="M27.14,23.52a4.16,4.16,0,0,1,.06-1.72,9.62,9.62,0,0,1-5.89-3,3.66,3.66,0,0,0,1.84,3A16.67,16.67,0,0,0,27.14,23.52Z"/><path class="cls-7" d="M39.54,22.1a1.93,1.93,0,0,0,.51-1.82A6.64,6.64,0,0,0,43,18,7,7,0,0,1,39.54,22.1Z"/><path class="cls-6" d="M31,23.89c.06-.53,0-1,0-1.57a13.23,13.23,0,0,1-3.41-.38,4.15,4.15,0,0,0-.06,1.4A11.3,11.3,0,0,0,31,23.89Z"/><path class="cls-2" d="M20.6,13.88a11,11,0,0,0,.77,3.79c1.6,3,6.87,3.83,10.75,3.79,7-.07,9.62-3.18,10.75-4.69a8.19,8.19,0,0,0,.63-4C36.11,11.47,28.13,12.57,20.6,13.88Z"/><path class="cls-3" d="M43.5,12.73a7.72,7.72,0,0,0-3.89-4.44A15.21,15.21,0,0,0,33.13,6.6a16,16,0,0,0-7.86,1.46,8.33,8.33,0,0,0-4.61,5.21A3.61,3.61,0,0,0,21,15.54C25.16,21.58,44.4,19.49,43.5,12.73Z"/><path class="cls-5" d="M27,10.44a15.59,15.59,0,0,0-3.36-.84A10,10,0,0,1,25.5,8.43,15.5,15.5,0,0,1,33.08,7a14.68,14.68,0,0,1,6.26,1.63A7.31,7.31,0,0,1,43,12.8a2.9,2.9,0,0,1-.24,1.61c-.62,1.36-2.39,2.53-4.84,3.3A27,27,0,0,0,27,10.44Z"/><path class="cls-2" d="M33.53,17.39a11.52,11.52,0,0,1-8.4-1.69,4.18,4.18,0,0,1-1.3-1.38,2.14,2.14,0,0,1-.14-1.73,4.59,4.59,0,0,1,1-1.64,7.18,7.18,0,0,1,1.57-1.3,10.13,10.13,0,0,1,4-1.38,13.11,13.11,0,0,1,4.31.21,19.93,19.93,0,0,1,4.08,1.36,8.23,8.23,0,0,1,1.83,1.05,2.87,2.87,0,0,1,1.08,1.67,2.85,2.85,0,0,0-1-1.75,8.07,8.07,0,0,0-1.81-1.16,18.8,18.8,0,0,0-4.1-1.52,13.07,13.07,0,0,0-4.49-.29A10.34,10.34,0,0,0,25.9,9.3a6.23,6.23,0,0,0-2.73,3.26,2.5,2.5,0,0,0,.25,2A4.63,4.63,0,0,0,24.9,16,11.53,11.53,0,0,0,33.53,17.39Z"/><path class="cls-6" d="M36.37,17.54a5,5,0,0,0,4.31-2.25,3.52,3.52,0,0,0-.45-4.23c-1.09-1.15-2.87-1.6-4.57-1.92a19,19,0,0,0-6.07-.41,7.76,7.76,0,0,0-5.23,2.7,15.09,15.09,0,0,1,8.43-1.28,9,9,0,0,1,3.78,1.29,4.27,4.27,0,0,1,2,3C38.71,15.62,37.55,16.84,36.37,17.54Z"/><path class="cls-7" d="M27.21,20.84a4.18,4.18,0,0,1,.06-1.72,9.62,9.62,0,0,1-5.89-3,3.66,3.66,0,0,0,1.84,3A16.69,16.69,0,0,0,27.21,20.84Z"/><path class="cls-7" d="M39.6,19.42a1.94,1.94,0,0,0,.52-1.82,6.63,6.63,0,0,0,2.94-2.31A7,7,0,0,1,39.6,19.42Z"/><path class="cls-6" d="M31.06,21.21c.06-.53,0-1,0-1.57a13.28,13.28,0,0,1-3.41-.37,4.15,4.15,0,0,0-.06,1.4A11.28,11.28,0,0,0,31.06,21.21Z"/><path class="cls-2" d="M19.61,11.16A10.92,10.92,0,0,0,20.38,15c1.6,3,6.86,3.82,10.75,3.79,7-.07,9.62-3.18,10.75-4.69a8.16,8.16,0,0,0,.64-4C35.13,8.76,27.14,9.85,19.61,11.16Z"/><path class="cls-3" d="M42.51,10a7.73,7.73,0,0,0-3.89-4.44,15.23,15.23,0,0,0-6.48-1.69,16,16,0,0,0-7.86,1.46,8.32,8.32,0,0,0-4.6,5.21,3.59,3.59,0,0,0,.39,2.27C24.18,18.87,43.41,16.78,42.51,10Z"/><path class="cls-5" d="M26,7.72a15.63,15.63,0,0,0-3.36-.85,10,10,0,0,1,1.83-1.17,15.48,15.48,0,0,1,7.58-1.4,14.63,14.63,0,0,1,6.26,1.63A7.31,7.31,0,0,1,42,10.09a2.92,2.92,0,0,1-.24,1.61c-.62,1.36-2.39,2.53-4.84,3.3A27,27,0,0,0,26,7.72Z"/><path class="cls-2" d="M32.55,14.68A11.52,11.52,0,0,1,24.15,13a4.18,4.18,0,0,1-1.3-1.38,2.16,2.16,0,0,1-.14-1.73,4.61,4.61,0,0,1,1-1.64,7.17,7.17,0,0,1,1.57-1.3,10.11,10.11,0,0,1,4-1.38,13.06,13.06,0,0,1,4.31.21,20,20,0,0,1,4.08,1.36,8.17,8.17,0,0,1,1.83,1.05,2.88,2.88,0,0,1,1.08,1.67,2.87,2.87,0,0,0-1-1.75,8.07,8.07,0,0,0-1.81-1.16,18.65,18.65,0,0,0-4.11-1.52,13,13,0,0,0-4.49-.29,10.38,10.38,0,0,0-4.28,1.47,6.22,6.22,0,0,0-2.73,3.26,2.5,2.5,0,0,0,.25,2,4.63,4.63,0,0,0,1.49,1.46A11.53,11.53,0,0,0,32.55,14.68Z"/><path class="cls-6" d="M35.39,14.82a5,5,0,0,0,4.31-2.25,3.52,3.52,0,0,0-.45-4.23c-1.09-1.15-2.87-1.6-4.57-1.92A19,19,0,0,0,28.62,6a7.76,7.76,0,0,0-5.23,2.7,15.1,15.1,0,0,1,8.43-1.28A9,9,0,0,1,35.6,8.73a4.26,4.26,0,0,1,2,3C37.73,12.9,36.57,14.13,35.39,14.82Z"/><path class="cls-7" d="M26.22,18.12a4.16,4.16,0,0,1,.06-1.72,9.62,9.62,0,0,1-5.89-3,3.66,3.66,0,0,0,1.84,3A16.76,16.76,0,0,0,26.22,18.12Z"/><path class="cls-7" d="M38.62,16.71a1.94,1.94,0,0,0,.51-1.82,6.65,6.65,0,0,0,2.94-2.31A7,7,0,0,1,38.62,16.71Z"/><path class="cls-6" d="M30.07,18.49c.06-.53,0-1,0-1.57a13.27,13.27,0,0,1-3.4-.37,4.17,4.17,0,0,0-.06,1.4A11.31,11.31,0,0,0,30.07,18.49Z"/><path class="cls-2" d="M21.64,7.56a10.94,10.94,0,0,0,.77,3.79c1.6,3,6.87,3.83,10.75,3.79,7-.07,9.62-3.18,10.75-4.69a8.15,8.15,0,0,0,.64-4C37.15,5.16,29.17,6.26,21.64,7.56Z"/><path class="cls-3" d="M44.54,6.42A7.73,7.73,0,0,0,40.65,2,15.19,15.19,0,0,0,34.17.29a16,16,0,0,0-7.86,1.46A8.32,8.32,0,0,0,21.7,7a3.59,3.59,0,0,0,.39,2.27C26.2,15.27,45.44,13.18,44.54,6.42Z"/><path class="cls-5" d="M28.07,4.12a15.62,15.62,0,0,0-3.36-.84,10,10,0,0,1,1.83-1.17A15.5,15.5,0,0,1,34.12.71a14.64,14.64,0,0,1,6.26,1.63A7.31,7.31,0,0,1,44,6.49a2.9,2.9,0,0,1-.24,1.61c-.62,1.36-2.39,2.53-4.84,3.3A27,27,0,0,0,28.07,4.12Z"/><path class="cls-2" d="M34.57,11.08a11.53,11.53,0,0,1-8.4-1.69A4.19,4.19,0,0,1,24.87,8a2.15,2.15,0,0,1-.14-1.73,4.61,4.61,0,0,1,1-1.64,7.2,7.2,0,0,1,1.57-1.3,10.14,10.14,0,0,1,4-1.38,13.12,13.12,0,0,1,4.31.21A19.94,19.94,0,0,1,39.7,3.52a8.21,8.21,0,0,1,1.83,1.05,2.88,2.88,0,0,1,1.08,1.67,2.87,2.87,0,0,0-1-1.75,8.1,8.1,0,0,0-1.81-1.16,18.79,18.79,0,0,0-4.1-1.52,13.07,13.07,0,0,0-4.49-.29A10.37,10.37,0,0,0,26.94,3a6.23,6.23,0,0,0-2.73,3.26,2.5,2.5,0,0,0,.25,2,4.65,4.65,0,0,0,1.49,1.46A11.54,11.54,0,0,0,34.57,11.08Z"/><path class="cls-6" d="M37.41,11.22A5,5,0,0,0,41.73,9a3.52,3.52,0,0,0-.45-4.23c-1.09-1.15-2.87-1.6-4.57-1.92a19,19,0,0,0-6.07-.4,7.75,7.75,0,0,0-5.23,2.7,15.1,15.1,0,0,1,8.43-1.28,9,9,0,0,1,3.77,1.29,4.26,4.26,0,0,1,2,3C39.75,9.31,38.59,10.53,37.41,11.22Z"/><path class="cls-7" d="M28.25,14.52a4.13,4.13,0,0,1,.06-1.72,9.62,9.62,0,0,1-5.9-3,3.66,3.66,0,0,0,1.84,3A16.75,16.75,0,0,0,28.25,14.52Z"/><path class="cls-7" d="M40.64,13.11a1.94,1.94,0,0,0,.51-1.82A6.65,6.65,0,0,0,44.1,9,7,7,0,0,1,40.64,13.11Z"/><path class="cls-6" d="M32.1,14.89c.06-.53,0-1,0-1.57A13.26,13.26,0,0,1,28.73,13a4.18,4.18,0,0,0-.06,1.4A11.32,11.32,0,0,0,32.1,14.89Z"/><path class="cls-4" d="M20.28,15h0a11.16,11.16,0,0,1-.79-3.85V11h0l0-.45a4.52,4.52,0,0,1,.15-.57,6.64,6.64,0,0,1,.47-1.08,8.16,8.16,0,0,1,1.38-1.81A8.21,8.21,0,0,1,26,1.69,15.42,15.42,0,0,1,32.88,0a16.85,16.85,0,0,1,7,1.31,8.41,8.41,0,0,1,4.91,5.05v0a9.6,9.6,0,0,1-.07,2.11,6.31,6.31,0,0,1-.6,2h0l-.84,1a5.75,5.75,0,0,1,.45,1.12v0h0a9.55,9.55,0,0,1-.14,2.48l.06.17h0v0a9,9,0,0,1-.4,3.48l.28.75h0v0a9.19,9.19,0,0,1,0,1.82,6.28,6.28,0,0,1,1.24,2.32h0a9.43,9.43,0,0,1-.09,2.09,6.19,6.19,0,0,1-.61,2h0l-.69.83a5.7,5.7,0,0,1,.54,1.32h0a9.33,9.33,0,0,1-.09,2.07,6.1,6.1,0,0,1-.6,2,6.08,6.08,0,0,0,.55-2,9.38,9.38,0,0,0,0-2,5.67,5.67,0,0,0-.58-1.32l0,0,0,0,.68-.86a6,6,0,0,0,.54-1.95,9.28,9.28,0,0,0,0-2,6.18,6.18,0,0,0-1.24-2.24l0,0v-.06a9.18,9.18,0,0,0,0-1.8L43,19l0-.06,0-.05a8.73,8.73,0,0,0,.37-3.39l-.06-.18v-.08a9.28,9.28,0,0,0,.12-2.42,5.5,5.5,0,0,0-.48-1.14l-.06-.11.09-.11.87-1.06a5.94,5.94,0,0,0,.54-1.9,9.19,9.19,0,0,0,.05-2A8,8,0,0,0,39.7,1.74,16.36,16.36,0,0,0,32.89.53a14.92,14.92,0,0,0-6.71,1.58,9.66,9.66,0,0,0-2.71,2.11,6.15,6.15,0,0,0-1.52,3v.08l0,0a7.83,7.83,0,0,0-1.37,1.75,6.34,6.34,0,0,0-.45,1,4.38,4.38,0,0,0-.15.53l0,.52v.17h0a10.91,10.91,0,0,0,.73,3.56l.33.53,0,.08,0,.08-.08.25a.93.93,0,0,0-.06.25l0,.49v.15h0A10.13,10.13,0,0,0,21.1,19v0l0,.06-.3.83a1.16,1.16,0,0,0-.11.42l0,.42v.13h0a10.94,10.94,0,0,0,.73,3.61l.07.11,0,.07-.06.07a7.24,7.24,0,0,0-.93,1.46,5.67,5.67,0,0,0-.31.81,3.57,3.57,0,0,0-.12.84V28h0a10.93,10.93,0,0,0,.71,3.7l.25.41h0A11.58,11.58,0,0,0,21.7,35,11.62,11.62,0,0,1,21,32.15l-.27-.41h0a11,11,0,0,1-.81-3.81v-.07h0A3.15,3.15,0,0,1,20,27a5.65,5.65,0,0,1,.3-.84,7.31,7.31,0,0,1,.87-1.45l0-.06h0a11,11,0,0,1-.79-3.84v-.13h0l0-.35a1.3,1.3,0,0,1,.12-.45l.29-.82a10.27,10.27,0,0,1-.37-2.51v-.14h0l0-.42a1,1,0,0,1,.06-.27l.06-.19-.32-.5Z"/><path class="cls-2" d="M38.86,42.57a11,11,0,0,0,.77,3.8c1.61,3,6.9,3.84,10.8,3.8,7.07-.06,9.66-3.17,10.79-4.68a8.11,8.11,0,0,0,.63-4C54.44,40.18,46.42,41.27,38.86,42.57Z"/><path class="cls-3" d="M61.86,41.45A7.76,7.76,0,0,0,57.95,37a15.36,15.36,0,0,0-6.51-1.7,16.14,16.14,0,0,0-7.89,1.45A8.31,8.31,0,0,0,38.92,42a3.58,3.58,0,0,0,.39,2.27C43.45,50.28,62.77,48.22,61.86,41.45Z"/><path class="cls-5" d="M45.31,39.13a15.82,15.82,0,0,0-3.37-.85,10.06,10.06,0,0,1,1.83-1.16,15.59,15.59,0,0,1,7.61-1.39,14.77,14.77,0,0,1,6.28,1.64,7.35,7.35,0,0,1,3.7,4.15,2.88,2.88,0,0,1-.24,1.61c-.62,1.36-2.4,2.53-4.85,3.3A27.17,27.17,0,0,0,45.31,39.13Z"/><path class="cls-2" d="M51.85,46.1a11.62,11.62,0,0,1-8.43-1.7A4.21,4.21,0,0,1,42.11,43,2.14,2.14,0,0,1,42,41.29a4.63,4.63,0,0,1,1-1.64,7.22,7.22,0,0,1,1.57-1.3,10.18,10.18,0,0,1,4-1.38,13.22,13.22,0,0,1,4.33.21A20,20,0,0,1,57,38.55a8.27,8.27,0,0,1,1.84,1.05,2.89,2.89,0,0,1,1.09,1.67,2.86,2.86,0,0,0-1-1.76,8.07,8.07,0,0,0-1.82-1.16A18.94,18.94,0,0,0,53,36.82a13.18,13.18,0,0,0-4.51-.3A10.41,10.41,0,0,0,44.18,38a6.21,6.21,0,0,0-2.74,3.25,2.5,2.5,0,0,0,.25,2,4.66,4.66,0,0,0,1.5,1.46A11.63,11.63,0,0,0,51.85,46.1Z"/><path class="cls-6" d="M54.71,46.25A5.05,5.05,0,0,0,59,44a3.51,3.51,0,0,0-.45-4.23c-1.1-1.15-2.88-1.6-4.59-1.93a19.21,19.21,0,0,0-6.09-.41,7.78,7.78,0,0,0-5.25,2.7,15.19,15.19,0,0,1,8.46-1.27,9.09,9.09,0,0,1,3.79,1.3,4.28,4.28,0,0,1,2,3C57,44.33,55.89,45.55,54.71,46.25Z"/><path class="cls-7" d="M45.51,49.54a4.13,4.13,0,0,1,.06-1.72,9.71,9.71,0,0,1-5.92-3,3.67,3.67,0,0,0,1.85,3A16.77,16.77,0,0,0,45.51,49.54Z"/><path class="cls-7" d="M58,48.13a1.93,1.93,0,0,0,.51-1.82A6.64,6.64,0,0,0,61.41,44,7,7,0,0,1,58,48.13Z"/><path class="cls-6" d="M49.37,49.91c.06-.53,0-1,0-1.57A13.41,13.41,0,0,1,46,48a4.17,4.17,0,0,0-.05,1.4A11.36,11.36,0,0,0,49.37,49.91Z"/><path class="cls-2" d="M37.7,38.73a11,11,0,0,0,.77,3.79c1.61,3,6.9,3.83,10.8,3.8,7.07-.06,9.66-3.17,10.79-4.68a8.14,8.14,0,0,0,.63-4C53.28,36.34,45.26,37.43,37.7,38.73Z"/><path class="cls-3" d="M60.69,37.62a7.77,7.77,0,0,0-3.91-4.45,15.35,15.35,0,0,0-6.51-1.7,16.14,16.14,0,0,0-7.89,1.45,8.31,8.31,0,0,0-4.62,5.21,3.59,3.59,0,0,0,.39,2.27C42.29,46.45,61.61,44.38,60.69,37.62Z"/><path class="cls-5" d="M44.15,35.3a15.76,15.76,0,0,0-3.37-.85,10.06,10.06,0,0,1,1.83-1.16,15.59,15.59,0,0,1,7.61-1.39,14.78,14.78,0,0,1,6.28,1.64,7.35,7.35,0,0,1,3.7,4.15A2.91,2.91,0,0,1,60,39.3c-.62,1.36-2.4,2.53-4.85,3.3A27.18,27.18,0,0,0,44.15,35.3Z"/><path class="cls-2" d="M50.69,42.26a11.62,11.62,0,0,1-8.43-1.7,4.2,4.2,0,0,1-1.31-1.39,2.14,2.14,0,0,1-.14-1.73,4.63,4.63,0,0,1,1-1.64,7.25,7.25,0,0,1,1.57-1.3,10.17,10.17,0,0,1,4-1.38,13.23,13.23,0,0,1,4.32.21,20,20,0,0,1,4.1,1.36,8.28,8.28,0,0,1,1.84,1.05,2.89,2.89,0,0,1,1.09,1.67,2.86,2.86,0,0,0-1-1.76,8.1,8.1,0,0,0-1.82-1.16A18.88,18.88,0,0,0,51.82,33a13.16,13.16,0,0,0-4.51-.3A10.4,10.4,0,0,0,43,34.16a6.21,6.21,0,0,0-2.74,3.26,2.5,2.5,0,0,0,.25,2A4.68,4.68,0,0,0,42,40.89,11.64,11.64,0,0,0,50.69,42.26Z"/><path class="cls-6" d="M53.54,42.42a5.06,5.06,0,0,0,4.33-2.25,3.51,3.51,0,0,0-.45-4.23c-1.1-1.15-2.88-1.6-4.59-1.93a19.2,19.2,0,0,0-6.09-.41,7.78,7.78,0,0,0-5.25,2.7A15.18,15.18,0,0,1,50,35a9.09,9.09,0,0,1,3.79,1.3,4.28,4.28,0,0,1,2,3C55.89,40.5,54.73,41.72,53.54,42.42Z"/><path class="cls-7" d="M44.35,45.71A4.13,4.13,0,0,1,44.41,44a9.7,9.7,0,0,1-5.92-3,3.67,3.67,0,0,0,1.85,3A16.92,16.92,0,0,0,44.35,45.71Z"/><path class="cls-7" d="M56.79,44.3a1.93,1.93,0,0,0,.51-1.82,6.62,6.62,0,0,0,2.95-2.3A7,7,0,0,1,56.79,44.3Z"/><path class="cls-6" d="M48.21,46.08c.06-.53,0-1,0-1.57a13.35,13.35,0,0,1-3.42-.38,4.13,4.13,0,0,0-.05,1.4A11.4,11.4,0,0,0,48.21,46.08Z"/><path class="cls-2" d="M38.19,36.3A10.94,10.94,0,0,0,39,40.09c1.61,3,6.9,3.83,10.8,3.8,7.07-.06,9.66-3.17,10.79-4.68a8.11,8.11,0,0,0,.63-4C53.77,33.91,45.75,35,38.19,36.3Z"/><path class="cls-3" d="M61.19,35.18a7.76,7.76,0,0,0-3.91-4.45A15.35,15.35,0,0,0,50.77,29a16.15,16.15,0,0,0-7.89,1.45,8.31,8.31,0,0,0-4.62,5.21A3.61,3.61,0,0,0,38.65,38C42.79,44,62.1,41.94,61.19,35.18Z"/><path class="cls-5" d="M44.65,32.86A15.76,15.76,0,0,0,41.27,32a10,10,0,0,1,1.83-1.16,15.59,15.59,0,0,1,7.61-1.39A14.79,14.79,0,0,1,57,31.1a7.34,7.34,0,0,1,3.7,4.15,2.89,2.89,0,0,1-.24,1.61c-.62,1.36-2.4,2.53-4.85,3.3A27.16,27.16,0,0,0,44.65,32.86Z"/><path class="cls-2" d="M51.18,39.83a11.62,11.62,0,0,1-8.43-1.7,4.19,4.19,0,0,1-1.31-1.39A2.15,2.15,0,0,1,41.3,35a4.58,4.58,0,0,1,1-1.64,7.19,7.19,0,0,1,1.57-1.3,10.15,10.15,0,0,1,4-1.38,13.22,13.22,0,0,1,4.33.21,20.08,20.08,0,0,1,4.1,1.36,8.27,8.27,0,0,1,1.84,1.05A2.9,2.9,0,0,1,59.26,35a2.88,2.88,0,0,0-1-1.76,8.09,8.09,0,0,0-1.82-1.16,18.92,18.92,0,0,0-4.12-1.53,13.13,13.13,0,0,0-4.51-.3,10.39,10.39,0,0,0-4.29,1.46A6.21,6.21,0,0,0,40.77,35,2.5,2.5,0,0,0,41,37a4.68,4.68,0,0,0,1.5,1.46A11.63,11.63,0,0,0,51.18,39.83Z"/><path class="cls-6" d="M54,40a5.06,5.06,0,0,0,4.33-2.25,3.51,3.51,0,0,0-.45-4.23c-1.1-1.15-2.88-1.6-4.59-1.93a19.2,19.2,0,0,0-6.09-.41A7.78,7.78,0,0,0,42,33.85a15.18,15.18,0,0,1,8.46-1.27,9.09,9.09,0,0,1,3.79,1.3,4.28,4.28,0,0,1,2,3C56.38,38.06,55.22,39.28,54,40Z"/><path class="cls-7" d="M44.84,43.27a4.17,4.17,0,0,1,.06-1.72,9.7,9.7,0,0,1-5.92-3,3.67,3.67,0,0,0,1.85,3A16.82,16.82,0,0,0,44.84,43.27Z"/><path class="cls-7" d="M57.29,41.86A1.93,1.93,0,0,0,57.8,40a6.63,6.63,0,0,0,2.95-2.3A7,7,0,0,1,57.29,41.86Z"/><path class="cls-6" d="M48.71,43.64c.06-.53,0-1,0-1.57a13.4,13.4,0,0,1-3.42-.38,4.14,4.14,0,0,0-.05,1.4A11.39,11.39,0,0,0,48.71,43.64Z"/><path class="cls-2" d="M39.52,32.4a11,11,0,0,0,.77,3.8c1.61,3,6.9,3.83,10.8,3.8,7.07-.06,9.66-3.17,10.79-4.68a8.13,8.13,0,0,0,.63-4C55.1,30,47.08,31.1,39.52,32.4Z"/><path class="cls-3" d="M62.52,31.28a7.76,7.76,0,0,0-3.91-4.45,15.36,15.36,0,0,0-6.51-1.7,16.14,16.14,0,0,0-7.89,1.45,8.3,8.3,0,0,0-4.62,5.21A3.6,3.6,0,0,0,40,34.07C44.12,40.12,63.43,38,62.52,31.28Z"/><path class="cls-5" d="M46,29a15.8,15.8,0,0,0-3.37-.85A10.07,10.07,0,0,1,44.43,27,15.58,15.58,0,0,1,52,25.56a14.79,14.79,0,0,1,6.28,1.64A7.35,7.35,0,0,1,62,31.35,2.91,2.91,0,0,1,61.79,33c-.62,1.36-2.4,2.53-4.85,3.3A27.16,27.16,0,0,0,46,29Z"/><path class="cls-2" d="M52.51,35.93a11.62,11.62,0,0,1-8.43-1.7,4.18,4.18,0,0,1-1.31-1.39,2.14,2.14,0,0,1-.14-1.73,4.59,4.59,0,0,1,1-1.64,7.22,7.22,0,0,1,1.57-1.3,10.16,10.16,0,0,1,4-1.38,13.23,13.23,0,0,1,4.32.21,20.07,20.07,0,0,1,4.1,1.36,8.27,8.27,0,0,1,1.84,1.05,2.89,2.89,0,0,1,1.09,1.67,2.87,2.87,0,0,0-1-1.75,8,8,0,0,0-1.82-1.16,19,19,0,0,0-4.12-1.53,13.15,13.15,0,0,0-4.51-.3,10.41,10.41,0,0,0-4.29,1.47,6.21,6.21,0,0,0-2.74,3.26,2.5,2.5,0,0,0,.25,2,4.68,4.68,0,0,0,1.5,1.46A11.63,11.63,0,0,0,52.51,35.93Z"/><path class="cls-6" d="M55.37,36.08a5.05,5.05,0,0,0,4.33-2.25,3.51,3.51,0,0,0-.45-4.23c-1.1-1.15-2.88-1.6-4.59-1.93a19.18,19.18,0,0,0-6.09-.41A7.78,7.78,0,0,0,43.32,30a15.2,15.2,0,0,1,8.46-1.27A9.09,9.09,0,0,1,55.57,30a4.28,4.28,0,0,1,2,3C57.71,34.17,56.55,35.39,55.37,36.08Z"/><path class="cls-7" d="M46.17,39.37a4.15,4.15,0,0,1,.06-1.72,9.7,9.7,0,0,1-5.92-3,3.67,3.67,0,0,0,1.85,3A16.88,16.88,0,0,0,46.17,39.37Z"/><path class="cls-7" d="M58.61,38a1.93,1.93,0,0,0,.51-1.82,6.64,6.64,0,0,0,2.95-2.3A7,7,0,0,1,58.61,38Z"/><path class="cls-6" d="M50,39.75c.06-.53,0-1,0-1.57a13.41,13.41,0,0,1-3.42-.38,4.12,4.12,0,0,0-.05,1.4A11.39,11.39,0,0,0,50,39.75Z"/><path class="cls-2" d="M37.58,27.68a10.92,10.92,0,0,0,.77,3.79c1.61,3,6.9,3.83,10.8,3.8,7.07-.06,9.66-3.17,10.79-4.68a8.12,8.12,0,0,0,.63-4C53.16,25.29,45.14,26.38,37.58,27.68Z"/><path class="cls-3" d="M60.58,26.56a7.76,7.76,0,0,0-3.91-4.45,15.35,15.35,0,0,0-6.51-1.7,16.12,16.12,0,0,0-7.89,1.45,8.31,8.31,0,0,0-4.62,5.21A3.6,3.6,0,0,0,38,29.35C42.18,35.4,61.49,33.33,60.58,26.56Z"/><path class="cls-5" d="M44,24.25a15.82,15.82,0,0,0-3.37-.85,10.14,10.14,0,0,1,1.83-1.16,15.6,15.6,0,0,1,7.61-1.39,14.8,14.8,0,0,1,6.28,1.64,7.35,7.35,0,0,1,3.7,4.15,2.89,2.89,0,0,1-.24,1.61c-.62,1.36-2.4,2.53-4.85,3.3A27.18,27.18,0,0,0,44,24.25Z"/><path class="cls-2" d="M50.57,31.21a11.62,11.62,0,0,1-8.43-1.7,4.19,4.19,0,0,1-1.31-1.39,2.14,2.14,0,0,1-.14-1.73,4.6,4.6,0,0,1,1-1.64,7.2,7.2,0,0,1,1.57-1.3,10.19,10.19,0,0,1,4-1.38,13.23,13.23,0,0,1,4.32.21,20.12,20.12,0,0,1,4.1,1.36,8.27,8.27,0,0,1,1.84,1.05,2.88,2.88,0,0,1,1.09,1.67,2.87,2.87,0,0,0-1-1.76,8.13,8.13,0,0,0-1.82-1.16,18.88,18.88,0,0,0-4.12-1.53,13.16,13.16,0,0,0-4.51-.3,10.41,10.41,0,0,0-4.29,1.47,6.21,6.21,0,0,0-2.74,3.25,2.5,2.5,0,0,0,.25,2,4.68,4.68,0,0,0,1.5,1.46A11.63,11.63,0,0,0,50.57,31.21Z"/><path class="cls-6" d="M53.43,31.36a5.06,5.06,0,0,0,4.33-2.25,3.52,3.52,0,0,0-.45-4.23c-1.1-1.15-2.88-1.6-4.59-1.93a19.2,19.2,0,0,0-6.09-.41,7.78,7.78,0,0,0-5.25,2.7A15.19,15.19,0,0,1,49.84,24a9.1,9.1,0,0,1,3.79,1.3,4.28,4.28,0,0,1,2,3C55.77,29.44,54.61,30.67,53.43,31.36Z"/><path class="cls-7" d="M44.23,34.65a4.12,4.12,0,0,1,.06-1.72,9.7,9.7,0,0,1-5.92-3,3.68,3.68,0,0,0,1.85,3A16.89,16.89,0,0,0,44.23,34.65Z"/><path class="cls-7" d="M56.67,33.25a1.93,1.93,0,0,0,.51-1.82,6.63,6.63,0,0,0,2.95-2.3A7,7,0,0,1,56.67,33.25Z"/><path class="cls-6" d="M48.09,35c.06-.53,0-1,0-1.57a13.39,13.39,0,0,1-3.42-.38,4.17,4.17,0,0,0-.05,1.4A11.42,11.42,0,0,0,48.09,35Z"/><path class="cls-4" d="M38.19,31.56h0a11.09,11.09,0,0,1-.82-3.86v-.19h0a4.6,4.6,0,0,1,.43-1.63,7.33,7.33,0,0,1,1-1.57,9.81,9.81,0,0,1,2.81-2.35,15.3,15.3,0,0,1,7-1.8,17.15,17.15,0,0,1,7.13,1.27,8.5,8.5,0,0,1,5,5.1v0h0l0,1.61a6.87,6.87,0,0,1,1.92,3.08v0h0a9.49,9.49,0,0,1-.08,2.1,6.25,6.25,0,0,1-.61,2h0l-.65.79a7.92,7.92,0,0,1-.54,2.71l0,.32a6.25,6.25,0,0,1,1.13,2.21h0a9.29,9.29,0,0,1-.09,2.07,6.13,6.13,0,0,1-.6,2,6.06,6.06,0,0,0,.54-2,9.18,9.18,0,0,0,0-2,6.09,6.09,0,0,0-1.19-2.15l0,0v0l0-.37v0a8.18,8.18,0,0,0,.47-2.7v0l0,0,.64-.81a6,6,0,0,0,.54-1.92,9.28,9.28,0,0,0,0-2,6.53,6.53,0,0,0-1.92-2.93l-.07-.06V26.6a8.07,8.07,0,0,0-4.78-4.75,16.7,16.7,0,0,0-6.92-1.19,14.8,14.8,0,0,0-6.79,1.7,9.33,9.33,0,0,0-2.69,2.22A6.84,6.84,0,0,0,38.25,26a3.93,3.93,0,0,0-.42,1.63v.2h0a10.89,10.89,0,0,0,.71,3.52,4.57,4.57,0,0,0,1.13,1.36l.06,0v.35l0,.05a7.07,7.07,0,0,0-.92,1.45,5.43,5.43,0,0,0-.31.8,3.44,3.44,0,0,0-.12.83l0,.13,0,.44v0l0,0a6.55,6.55,0,0,0-.37.88,1.84,1.84,0,0,0-.11.46l0,.46v.11h0a10.92,10.92,0,0,0,.71,3.67l.41.63v0h0a11.3,11.3,0,0,0,.69,3.2,11.32,11.32,0,0,1-.78-3.18l-.43-.62h0a11.05,11.05,0,0,1-.84-3.82v-.1h0l0-.41a2,2,0,0,1,.1-.49,6.68,6.68,0,0,1,.35-.88l0-.55v-.12h0a2.92,2.92,0,0,1,.11-.79,5.66,5.66,0,0,1,.31-.85,7.42,7.42,0,0,1,.89-1.48V33A4.87,4.87,0,0,1,38.19,31.56Z"/><path class="cls-2" d="M34.12,26.87a10.93,10.93,0,0,1,2.78,2.07c1.93,2.41,1.13,6.81,0,9.81C35,44.2,31.8,45,30.3,45.28A7.25,7.25,0,0,1,27,44.21C28,38,31,32.21,34.12,26.87Z"/><path class="cls-3" d="M27,44.21a7.87,7.87,0,0,1-2.43-4.74A13.11,13.11,0,0,1,25,33.78a11.73,11.73,0,0,1,3.3-5.54,6.07,6.07,0,0,1,5.36-1.55,3.56,3.56,0,0,1,1.68,1.18C38.93,33.41,32,47.53,27,44.21Z"/><path class="cls-5" d="M29.65,30.53a13.4,13.4,0,0,1,.25-2.93,7,7,0,0,0-1.42,1,11.36,11.36,0,0,0-3.18,5.34,12.63,12.63,0,0,0-.43,5.49,7.44,7.44,0,0,0,2.26,4.46,2.6,2.6,0,0,0,1.33.44c1.24,0,2.65-.87,3.92-2.47A26.11,26.11,0,0,1,29.65,30.53Z"/><path class="cls-2" d="M33.34,38.28a9.7,9.7,0,0,0,1-7.17,4.26,4.26,0,0,0-.73-1.55,2.06,2.06,0,0,0-1.32-.78,3.55,3.55,0,0,0-1.56.14,5.06,5.06,0,0,0-1.45.71,7.15,7.15,0,0,0-2.19,2.58,10.38,10.38,0,0,0-1,3.42,17.63,17.63,0,0,0,0,3.7,7.81,7.81,0,0,0,.33,1.83,3,3,0,0,0,1,1.49,3,3,0,0,1-1.11-1.45,7.82,7.82,0,0,1-.41-1.86,16.79,16.79,0,0,1-.08-3.78,10.41,10.41,0,0,1,1-3.6,7.32,7.32,0,0,1,2.33-2.75,4.54,4.54,0,0,1,3.31-.85,2.43,2.43,0,0,1,1.51,1,4.71,4.71,0,0,1,.74,1.72A9.56,9.56,0,0,1,33.34,38.28Z"/><path class="cls-6" d="M32.68,40.54a3.55,3.55,0,0,1-3,2.47,3.37,3.37,0,0,1-3.21-2,7.69,7.69,0,0,1-.26-4.29,15.18,15.18,0,0,1,1.34-4.87,5.43,5.43,0,0,1,3.56-3,11.18,11.18,0,0,0-3.31,6,8,8,0,0,0,0,3.43A4.37,4.37,0,0,0,29.63,41,2.89,2.89,0,0,0,32.68,40.54Z"/><path class="cls-7" d="M37.79,34.71a3.86,3.86,0,0,0-1.37-.62,9,9,0,0,0-.74-5.74,3.75,3.75,0,0,1,1.86,2.59A15.33,15.33,0,0,1,37.79,34.71Z"/><path class="cls-7" d="M33.28,43.78a1.64,1.64,0,0,1-1.58-.31,4.64,4.64,0,0,1-2.62,1.38A5.11,5.11,0,0,0,33.28,43.78Z"/><path class="cls-6" d="M37,37.84c-.43-.16-.81-.42-1.25-.58a10.76,10.76,0,0,0,.63-2.79,3.85,3.85,0,0,1,1.12.5A9.43,9.43,0,0,1,37,37.84Z"/><path class="cls-4" d="M38.12,31.18a5.54,5.54,0,0,0-1-2.36h0a11.1,11.1,0,0,0-2.82-2.1l-.14-.07v0a3.91,3.91,0,0,0-1.42-.29,5.54,5.54,0,0,0-1.57.17A7.06,7.06,0,0,0,28.28,28a9.89,9.89,0,0,0-2.1,2.57A13.45,13.45,0,0,0,25,33.78a14.19,14.19,0,0,1,1.45-3,9.73,9.73,0,0,1,2-2.47,6.72,6.72,0,0,1,2.69-1.42,5.24,5.24,0,0,1,1.48-.16,3.49,3.49,0,0,1,1.42.32l.14.07h0a10.89,10.89,0,0,1,2.59,2,5.13,5.13,0,0,1,1,2.19,9.61,9.61,0,0,1,.14,2.5c0,.84-.21,1.67-.34,2.51A23.42,23.42,0,0,1,37,38.76a18.56,18.56,0,0,0,.85-2.41,11.54,11.54,0,0,0,.42-2.56A10.05,10.05,0,0,0,38.12,31.18Z"/><path class="cls-2" d="M29.22,40.82c1.48-5.35,6.4-8.69,11-7.47s7.12,6.55,5.65,11.89-6.4,8.69-11,7.47S27.74,46.17,29.22,40.82Z"/><path class="cls-3" d="M28,40.05c1.48-5.35,6.4-8.69,11-7.47s7.12,6.55,5.64,11.89-6.4,8.69-11,7.47S26.53,45.4,28,40.05Z"/><path class="cls-7" d="M34.78,52.27c2.93.35,5.29-.85,7.34-2.93L43,50C40.4,52.56,37,53.43,34.78,52.27Z"/><path class="cls-7" d="M42.67,34.65a8.84,8.84,0,0,1,2.43,5.11l.9.39A9.35,9.35,0,0,0,42.67,34.65Z"/><path class="cls-6" d="M46,40.41a9.53,9.53,0,0,1,.13,2.34l-.91-.33a7.64,7.64,0,0,0,0-2.27Z"/><path class="cls-6" d="M28.37,40.15A11.11,11.11,0,0,1,29.84,37a12.26,12.26,0,0,0,2.86,7.76,16.49,16.49,0,0,0,7.45,5l.59.19a8.23,8.23,0,0,1-5.16,2,7.09,7.09,0,0,1-1.83-.24C29.36,50.42,26.95,45.29,28.37,40.15Z"/><path class="cls-2" d="M41.88,44.6a9.61,9.61,0,0,0-.39-6.16A5.58,5.58,0,0,0,38,35.13a4.57,4.57,0,0,0-1.27-.18c-2.86,0-5.61,2.64-6.53,6.28A10.17,10.17,0,0,0,30,45.37a9.07,9.07,0,0,1,.05-4.76c1-3.57,3.93-6.16,7-6.16a5.32,5.32,0,0,1,1.37.18,5.8,5.8,0,0,1,3.71,3.25,8.7,8.7,0,0,1,.42,6.05,9.28,9.28,0,0,1-2,3.74A10,10,0,0,0,41.88,44.6Z"/><path class="cls-6" d="M30.72,40.44A7.27,7.27,0,0,0,32.24,48,5.22,5.22,0,0,0,36,49.86,4.53,4.53,0,0,0,38.53,49a6.58,6.58,0,0,0,1.73-1.92,5,5,0,0,1-5,.87,6.62,6.62,0,0,1-3.54-3.3A14.2,14.2,0,0,1,30.72,40.44Z"/><path class="cls-4" d="M27.95,40.05a11.44,11.44,0,0,1,2-3.84,9.9,9.9,0,0,1,3.32-2.77,8.08,8.08,0,0,1,4.2-.9,7.14,7.14,0,0,1,4,1.52h0A7.92,7.92,0,0,1,44.63,37,10,10,0,0,1,46,41.09a11.73,11.73,0,0,1-2.27,8.26,11.41,11.41,0,0,0,2.6-8.29A9.86,9.86,0,0,0,45,36.81a8.29,8.29,0,0,0-3.28-3.1l0,0a7.55,7.55,0,0,0-4.21-1.57,8.11,8.11,0,0,0-4.38,1,10.12,10.12,0,0,0-3.34,2.93A11.58,11.58,0,0,0,27.95,40.05Z"/></g></g></g></svg>